HIERARCHY
ROOT HIP
{
	OFFSET 0.0 0.0 0.0
	CHANNELS 6 Xposition Yposition Zposition Zrotation Xrotation Yrotation
	JOINT WAIST
	{
		OFFSET 0.0 0.040713925 0.0
		CHANNELS 3 Zrotation Xrotation Yrotation
		JOINT CHEST
		{
			OFFSET 0.0 0.20356962 0.0
			CHANNELS 3 Zrotation Xrotation Yrotation
			JOINT UPPER_CHEST
			{
				OFFSET 0.0 0.1628557 0.0
				CHANNELS 3 Zrotation Xrotation Yrotation
				JOINT NECK
				{
					OFFSET 0.0 0.1628557 0.0
					CHANNELS 3 Zrotation Xrotation Yrotation
					JOINT HEAD
					{
						OFFSET 0.0 0.0 0.0
						CHANNELS 3 Zrotation Xrotation Yrotation
						End Site
						{
							OFFSET 0.0 0.0 0.0
						}
					}
					JOINT HEAD_TRACKER
					{
						OFFSET 0.0 -0.0 0.0
						CHANNELS 3 Zrotation Xrotation Yrotation
						End Site
						{
							OFFSET 0.0 0.0 0.0
						}
					}
					JOINT LEFT_UPPER_SHOULDER
					{
						OFFSET 0.0 -0.0 0.0
						CHANNELS 3 Zrotation Xrotation Yrotation
						JOINT LEFT_SHOULDER
						{
							OFFSET 0.0 -0.0 0.0
							CHANNELS 3 Zrotation Xrotation Yrotation
							JOINT LEFT_UPPER_ARM
							{
								OFFSET 0.0 -0.19241881 0.0
								CHANNELS 3 Zrotation Xrotation Yrotation
								JOINT LEFT_LOWER_ARM
								{
									OFFSET 0.0 -0.2646405 0.0
									CHANNELS 3 Zrotation Xrotation Yrotation
									JOINT LEFT_HAND
									{
										OFFSET 0.0 -0.2646405 0.0
										CHANNELS 3 Zrotation Xrotation Yrotation
										JOINT LEFT_HAND_TRACKER
										{
											OFFSET 0.0 -0.13462912 0.0
											CHANNELS 3 Zrotation Xrotation Yrotation
											End Site
											{
												OFFSET 0.0 0.0 0.0
											}
										}
										JOINT LEFT_THUMB_METACARPAL
										{
											OFFSET 0.0 -0.13462912 0.0
											CHANNELS 3 Zrotation Xrotation Yrotation
											JOINT LEFT_THUMB_PROXIMAL
											{
												OFFSET 0.0 -0.007826238 0.0
												CHANNELS 3 Zrotation Xrotation Yrotation
												JOINT LEFT_THUMB_DISTAL
												{
													OFFSET 0.0 -0.007826238 0.0
													CHANNELS 3 Zrotation Xrotation Yrotation
													End Site
													{
														OFFSET 0.0 0.0 0.0
													}
												}
											}
										}
										JOINT LEFT_INDEX_PROXIMAL
										{
											OFFSET 0.0 -0.13462912 0.0
											CHANNELS 3 Zrotation Xrotation Yrotation
											JOINT LEFT_INDEX_INTERMEDIATE
											{
												OFFSET 0.0 -0.00875 0.0
												CHANNELS 3 Zrotation Xrotation Yrotation
												JOINT LEFT_INDEX_DISTAL
												{
													OFFSET 0.0 -0.00875 0.0
													CHANNELS 3 Zrotation Xrotation Yrotation
													End Site
													{
														OFFSET 0.0 0.0 0.0
													}
												}
											}
										}
										JOINT LEFT_MIDDLE_PROXIMAL
										{
											OFFSET 0.0 -0.13462912 0.0
											CHANNELS 3 Zrotation Xrotation Yrotation
											JOINT LEFT_MIDDLE_INTERMEDIATE
											{
												OFFSET 0.0 -0.010500001 0.0
												CHANNELS 3 Zrotation Xrotation Yrotation
												JOINT LEFT_MIDDLE_DISTAL
												{
													OFFSET 0.0 -0.010500001 0.0
													CHANNELS 3 Zrotation Xrotation Yrotation
													End Site
													{
														OFFSET 0.0 0.0 0.0
													}
												}
											}
										}
										JOINT LEFT_RING_PROXIMAL
										{
											OFFSET 0.0 -0.13462912 0.0
											CHANNELS 3 Zrotation Xrotation Yrotation
											JOINT LEFT_RING_INTERMEDIATE
											{
												OFFSET 0.0 -0.0098 0.0
												CHANNELS 3 Zrotation Xrotation Yrotation
												JOINT LEFT_RING_DISTAL
												{
													OFFSET 0.0 -0.0098 0.0
													CHANNELS 3 Zrotation Xrotation Yrotation
													End Site
													{
														OFFSET 0.0 0.0 0.0
													}
												}
											}
										}
										JOINT LEFT_LITTLE_PROXIMAL
										{
											OFFSET 0.0 -0.13462912 0.0
											CHANNELS 3 Zrotation Xrotation Yrotation
											JOINT LEFT_LITTLE_INTERMEDIATE
											{
												OFFSET 0.0 -0.007 0.0
												CHANNELS 3 Zrotation Xrotation Yrotation
												JOINT LEFT_LITTLE_DISTAL
												{
													OFFSET 0.0 -0.007 0.0
													CHANNELS 3 Zrotation Xrotation Yrotation
													End Site
													{
														OFFSET 0.0 0.0 0.0
													}
												}
											}
										}
									}
								}
								JOINT LEFT_ELBOW_TRACKER
								{
									OFFSET 0.0 -0.2646405 0.0
									CHANNELS 3 Zrotation Xrotation Yrotation
									End Site
									{
										OFFSET 0.0 0.0 0.0
									}
								}
							}
						}
					}
					JOINT RIGHT_UPPER_SHOULDER
					{
						OFFSET 0.0 -0.0 0.0
						CHANNELS 3 Zrotation Xrotation Yrotation
						JOINT RIGHT_SHOULDER
						{
							OFFSET 0.0 -0.0 0.0
							CHANNELS 3 Zrotation Xrotation Yrotation
							JOINT RIGHT_UPPER_ARM
							{
								OFFSET 0.0 -0.19241881 0.0
								CHANNELS 3 Zrotation Xrotation Yrotation
								JOINT RIGHT_LOWER_ARM
								{
									OFFSET 0.0 -0.2646405 0.0
									CHANNELS 3 Zrotation Xrotation Yrotation
									JOINT RIGHT_HAND
									{
										OFFSET 0.0 -0.2646405 0.0
										CHANNELS 3 Zrotation Xrotation Yrotation
										JOINT RIGHT_HAND_TRACKER
										{
											OFFSET 0.0 -0.13462912 0.0
											CHANNELS 3 Zrotation Xrotation Yrotation
											End Site
											{
												OFFSET 0.0 0.0 0.0
											}
										}
										JOINT RIGHT_THUMB_METACARPAL
										{
											OFFSET 0.0 -0.13462912 0.0
											CHANNELS 3 Zrotation Xrotation Yrotation
											JOINT RIGHT_THUMB_PROXIMAL
											{
												OFFSET 0.0 -0.007826238 0.0
												CHANNELS 3 Zrotation Xrotation Yrotation
												JOINT RIGHT_THUMB_DISTAL
												{
													OFFSET 0.0 -0.007826238 0.0
													CHANNELS 3 Zrotation Xrotation Yrotation
													End Site
													{
														OFFSET 0.0 0.0 0.0
													}
												}
											}
										}
										JOINT RIGHT_INDEX_PROXIMAL
										{
											OFFSET 0.0 -0.13462912 0.0
											CHANNELS 3 Zrotation Xrotation Yrotation
											JOINT RIGHT_INDEX_INTERMEDIATE
											{
												OFFSET 0.0 -0.00875 0.0
												CHANNELS 3 Zrotation Xrotation Yrotation
												JOINT RIGHT_INDEX_DISTAL
												{
													OFFSET 0.0 -0.00875 0.0
													CHANNELS 3 Zrotation Xrotation Yrotation
													End Site
													{
														OFFSET 0.0 0.0 0.0
													}
												}
											}
										}
										JOINT RIGHT_MIDDLE_PROXIMAL
										{
											OFFSET 0.0 -0.13462912 0.0
											CHANNELS 3 Zrotation Xrotation Yrotation
											JOINT RIGHT_MIDDLE_INTERMEDIATE
											{
												OFFSET 0.0 -0.010500001 0.0
												CHANNELS 3 Zrotation Xrotation Yrotation
												JOINT RIGHT_MIDDLE_DISTAL
												{
													OFFSET 0.0 -0.010500001 0.0
													CHANNELS 3 Zrotation Xrotation Yrotation
													End Site
													{
														OFFSET 0.0 0.0 0.0
													}
												}
											}
										}
										JOINT RIGHT_RING_PROXIMAL
										{
											OFFSET 0.0 -0.13462912 0.0
											CHANNELS 3 Zrotation Xrotation Yrotation
											JOINT RIGHT_RING_INTERMEDIATE
											{
												OFFSET 0.0 -0.0098 0.0
												CHANNELS 3 Zrotation Xrotation Yrotation
												JOINT RIGHT_RING_DISTAL
												{
													OFFSET 0.0 -0.0098 0.0
													CHANNELS 3 Zrotation Xrotation Yrotation
													End Site
													{
														OFFSET 0.0 0.0 0.0
													}
												}
											}
										}
										JOINT RIGHT_LITTLE_PROXIMAL
										{
											OFFSET 0.0 -0.13462912 0.0
											CHANNELS 3 Zrotation Xrotation Yrotation
											JOINT RIGHT_LITTLE_INTERMEDIATE
											{
												OFFSET 0.0 -0.007 0.0
												CHANNELS 3 Zrotation Xrotation Yrotation
												JOINT RIGHT_LITTLE_DISTAL
												{
													OFFSET 0.0 -0.007 0.0
													CHANNELS 3 Zrotation Xrotation Yrotation
													End Site
													{
														OFFSET 0.0 0.0 0.0
													}
												}
											}
										}
									}
								}
								JOINT RIGHT_ELBOW_TRACKER
								{
									OFFSET 0.0 -0.2646405 0.0
									CHANNELS 3 Zrotation Xrotation Yrotation
									End Site
									{
										OFFSET 0.0 0.0 0.0
									}
								}
							}
						}
					}
				}
				JOINT CHEST_TRACKER
				{
					OFFSET 0.0 -0.1628557 0.0
					CHANNELS 3 Zrotation Xrotation Yrotation
					End Site
					{
						OFFSET 0.0 0.0 0.0
					}
				}
			}
		}
	}
	JOINT LEFT_HIP
	{
		OFFSET 0.0 -0.040713925 0.0
		CHANNELS 3 Zrotation Xrotation Yrotation
		JOINT LEFT_UPPER_LEG
		{
			OFFSET 0.0 -0.13 0.0
			CHANNELS 3 Zrotation Xrotation Yrotation
			JOINT LEFT_LOWER_LEG
			{
				OFFSET 0.0 -0.42749622 0.0
				CHANNELS 3 Zrotation Xrotation Yrotation
				JOINT LEFT_FOOT
				{
					OFFSET 0.0 -0.5113743 0.0
					CHANNELS 3 Zrotation Xrotation Yrotation
					JOINT LEFT_FOOT_TRACKER
					{
						OFFSET 0.0 -0.05 0.0
						CHANNELS 3 Zrotation Xrotation Yrotation
						End Site
						{
							OFFSET 0.0 0.0 0.0
						}
					}
				}
			}
			JOINT LEFT_KNEE_TRACKER
			{
				OFFSET 0.0 -0.42749622 0.0
				CHANNELS 3 Zrotation Xrotation Yrotation
				End Site
				{
					OFFSET 0.0 0.0 0.0
				}
			}
		}
	}
	JOINT RIGHT_HIP
	{
		OFFSET 0.0 -0.040713925 0.0
		CHANNELS 3 Zrotation Xrotation Yrotation
		JOINT RIGHT_UPPER_LEG
		{
			OFFSET 0.0 -0.13 0.0
			CHANNELS 3 Zrotation Xrotation Yrotation
			JOINT RIGHT_LOWER_LEG
			{
				OFFSET 0.0 -0.42749622 0.0
				CHANNELS 3 Zrotation Xrotation Yrotation
				JOINT RIGHT_FOOT
				{
					OFFSET 0.0 -0.5113743 0.0
					CHANNELS 3 Zrotation Xrotation Yrotation
					JOINT RIGHT_FOOT_TRACKER
					{
						OFFSET 0.0 -0.05 0.0
						CHANNELS 3 Zrotation Xrotation Yrotation
						End Site
						{
							OFFSET 0.0 0.0 0.0
						}
					}
				}
			}
			JOINT RIGHT_KNEE_TRACKER
			{
				OFFSET 0.0 -0.42749622 0.0
				CHANNELS 3 Zrotation Xrotation Yrotation
				End Site
				{
					OFFSET 0.0 0.0 0.0
				}
			}
		}
	}
	JOINT HIP_TRACKER
	{
		OFFSET 0.0 -0.040713925 0.0
		CHANNELS 3 Zrotation Xrotation Yrotation
		End Site
		{
			OFFSET 0.0 0.0 0.0
		}
	}
}
MOTION
Frames: 4                
Frame Time: 0.01
-0.024249963 -0.4998406 0.073254466 -1.158979 37.03125 1.2486761 -1.875043 -23.487047 -0.058187094 -2.1849823 -35.212227 -0.8652942 2.134434E-7 -6.670107E-9 -3.7352595E-7 -2.1344505E-7 6.6701578E-9 1.06722524E-7 -0.0 0.0 1.067217E-7 -0.0 0.0 1.067217E-7 -0.0 0.0 1.067217E-7 -65.43282 1.6708654E-7 1.1220865E-6 5.321492 32.59787 20.768269 -99.38824 83.59009 82.334114 77.17029 73.47549 -95.17652 1.3203788E-5 -74.93151 1.4421707E-5 -0.062777676 -48.478645 -0.09979194 -0.0 0.0 0.0 -0.0 0.0 0.0 -0.23570453 -75.0436 -0.25632733 -4.268868E-6 1.7075472E-6 6.361109E-14 -4.268868E-6 1.7075472E-6 6.361109E-14 -0.23570453 -75.0436 -0.25632733 -4.268868E-6 1.7075472E-6 6.361109E-14 -4.268868E-6 1.7075472E-6 6.361109E-14 -0.23570453 -75.0436 -0.25632733 -4.268868E-6 1.7075472E-6 6.361109E-14 -4.268868E-6 1.7075472E-6 6.361109E-14 -0.23570979 -75.0436 -0.25633135 2.5613208E-6 0.0 0.0 2.5613208E-6 0.0 0.0 3.4151249E-6 -5.3361327E-6 -8.537811E-7 -0.0 0.0 1.067217E-7 65.43283 -1.2695574E-6 -1.9919604E-7 -31.407722 15.118741 -13.878268 53.297447 41.586754 -24.87023 -52.24939 80.36882 71.1913 1.3203642E-5 -74.9315 1.442155E-5 -0.0016483527 -48.36715 1.4325109E-4 3.4150944E-6 -1.7075472E-6 -3.4150944E-6 3.4150944E-6 -1.7075472E-6 -3.4150944E-6 -0.0014183118 -74.9322 3.5008928E-4 5.088888E-14 -1.7075474E-6 3.4150949E-6 5.088888E-14 -1.7075474E-6 3.4150949E-6 -0.0014183118 -74.9322 3.5008928E-4 5.088888E-14 -1.7075474E-6 3.4150949E-6 5.088888E-14 -1.7075474E-6 3.4150949E-6 -0.0014183118 -74.9322 3.5008928E-4 5.088888E-14 -1.7075474E-6 3.4150949E-6 5.088888E-14 -1.7075474E-6 3.4150949E-6 -0.0014130985 -74.93219 3.5408512E-4 -0.0 8.537737E-7 0.0 -0.0 8.537737E-7 0.0 -6.830128E-6 -2.5879783E-6 -1.6008127E-7 -2.1344505E-7 6.6701578E-9 1.06722524E-7 -90.0 -1.1696865E-6 -1.1696865E-6 78.91505 59.522808 3.069045 177.77731 -50.749733 166.16827 -177.64503 58.067444 178.31866 7.5462964E-8 -90.0 0.0 7.209802 0.46704382 7.402991 89.99999 1.1696864E-6 1.2451501E-6 -72.4968 57.27153 -5.890973 -174.31435 -50.261047 -161.28929 174.06398 56.43558 -171.97058 -4.716425E-7 -90.0 0.0 -7.428615 0.6554698 -10.070908 -1.6008256E-7 -4.1688178E-10 9.3381495E-8
-0.02412695 -0.49981982 0.07338864 -1.1530181 37.02271 1.2543544 -1.8726405 -23.490616 -0.05623163 -2.1827178 -35.21764 -0.8627492 -2.1344337E-7 1.7142171E-6 -4.2688674E-7 3.99126E-15 -1.714225E-6 2.6680547E-7 1.2424041E-17 6.6701062E-9 -2.134434E-7 1.2424041E-17 6.6701062E-9 -2.134434E-7 1.2424041E-17 6.6701062E-9 -2.134434E-7 -65.432816 1.7958106E-7 1.1536165E-7 5.326253 32.627148 20.619776 -100.41118 83.598465 83.38143 77.46014 73.38055 -95.389656 5.213213E-6 -74.93151 3.995291E-6 -0.087533824 -48.52268 -0.1390891 1.4941038E-6 -1.7075472E-6 2.2263882E-14 1.4941038E-6 -1.7075472E-6 2.2263882E-14 -0.3292457 -75.08754 -0.35797366 -0.0 1.7075472E-6 0.0 -0.0 1.7075472E-6 0.0 -0.3292457 -75.08754 -0.35797366 -0.0 1.7075472E-6 0.0 -0.0 1.7075472E-6 0.0 -0.3292457 -75.08754 -0.35797366 -0.0 1.7075472E-6 0.0 -0.0 1.7075472E-6 0.0 -0.32925078 -75.08753 -0.35797754 1.7075472E-6 -1.7075472E-6 3.4150944E-6 1.7075472E-6 -1.7075472E-6 3.4150944E-6 3.4151258E-6 -1.7075629E-6 5.0889807E-14 1.2424041E-17 6.6701062E-9 -2.134434E-7 65.432816 0.0 0.0 -31.41614 15.118679 -13.8783655 53.29862 41.580055 -24.880365 -52.251347 80.38392 71.196785 2.119418E-5 -74.93152 2.4847912E-5 -0.0022942368 -48.367416 2.0134979E-4 -0.0 0.0 0.0 -0.0 0.0 0.0 -0.0019456112 -74.93247 5.182167E-4 -0.0 0.0 0.0 -0.0 0.0 0.0 -0.0019456112 -74.93247 5.182167E-4 -0.0 0.0 0.0 -0.0 0.0 0.0 -0.0019456112 -74.93247 5.182167E-4 -0.0 0.0 0.0 -0.0 0.0 0.0 -0.0019403974 -74.932465 5.222126E-4 7.633331E-14 -2.5613208E-6 3.4150944E-6 7.633331E-14 -2.5613208E-6 3.4150944E-6 4.360747E-15 -1.0405257E-6 4.802426E-7 3.99126E-15 -1.714225E-6 2.6680547E-7 -90.0 1.094223E-6 -1.3206138E-6 78.903984 59.532753 3.0804338 177.79991 -50.749744 166.18405 -177.6439 58.06711 178.31818 -0.63301474 -89.99999 -0.6330148 7.2184715 0.46706238 7.394667 90.0 -3.50906E-6 1.0942231E-6 -72.48826 57.277386 -5.905803 -174.31506 -50.26038 -161.29045 174.06085 56.43409 -171.97116 2.8298555E-7 -90.0 0.0 -7.428334 0.6554066 -10.070438 -1.6008258E-7 1.0247787E-5 -1.2006194E-7
-0.023767479 -0.49975878 0.073780544 -1.135594 36.997833 1.2709466 -1.8656261 -23.501137 -0.050517526 -2.1761062 -35.233425 -0.85531 2.134434E-7 3.4150944E-6 -1.067217E-7 -2.134423E-7 -3.415077E-6 -6.361044E-15 7.9824464E-16 1.7142173E-6 -5.336085E-8 7.9824464E-16 1.7142173E-6 -5.336085E-8 7.9824464E-16 1.7142173E-6 -5.336085E-8 -65.43282 -6.1604567E-7 -1.4105077E-6 5.2585773 32.718204 20.270542 -101.50281 83.46174 84.39386 77.745575 73.07087 -95.50804 1.8075518E-5 -74.93151 9.550045E-6 -0.06703089 -48.390404 -0.026703645 1.2806604E-6 0.0 0.0 1.2806604E-6 0.0 0.0 -0.11303116 -74.955444 -0.0683041 -8.537736E-7 -1.7075472E-6 -1.2722218E-14 -8.537736E-7 -1.7075472E-6 -1.2722218E-14 -0.11303116 -74.955444 -0.0683041 -8.537736E-7 -1.7075472E-6 -1.2722218E-14 -8.537736E-7 -1.7075472E-6 -1.2722218E-14 -0.11303116 -74.955444 -0.0683041 -8.537736E-7 -1.7075472E-6 -1.2722218E-14 -8.537736E-7 -1.7075472E-6 -1.2722218E-14 -0.11303396 -74.955444 -0.068310544 2.5613206E-6 -1.707547E-6 -3.415094E-6 2.5613206E-6 -1.707547E-6 -3.415094E-6 -0.0 2.1344528E-7 0.0 7.9824464E-16 1.7142173E-6 -5.336085E-8 65.43283 -1.2820677E-6 -1.2059365E-6 -31.440748 15.118488 -13.878625 53.302017 41.560486 -24.910007 -52.3083 80.41542 71.26017 4.871661E-6 -74.93152 -4.87166E-6 0.003226025 -48.367855 0.0012316168 5.088888E-14 -1.7075474E-6 3.4150949E-6 5.088888E-14 -1.7075474E-6 3.4150949E-6 0.0053348327 -74.93291 0.0031377191 -3.4150944E-6 0.0 0.0 -3.4150944E-6 0.0 0.0 0.0053348327 -74.93291 0.0031377191 -3.4150944E-6 0.0 0.0 -3.4150944E-6 0.0 0.0 0.0053348327 -74.93291 0.0031377191 -3.4150944E-6 0.0 0.0 -3.4150944E-6 0.0 0.0 0.0053400462 -74.9329 0.0031417143 -0.0 2.5613208E-6 0.0 -0.0 2.5613208E-6 0.0 1.7075207E-6 1.8275808E-6 -8.537604E-7 -2.134423E-7 -3.415077E-6 -6.361044E-15 -90.0 -1.7733954E-6 -1.7733954E-6 78.87171 59.561733 3.113664 177.86594 -50.74969 166.23015 -177.64067 58.066044 178.31676 -0.42201933 -89.999985 -0.4220194 7.2437925 0.46717536 7.370353 90.00001 1.7356635E-6 6.791725E-7 -72.46323 57.294437 -5.949166 -174.31714 -50.25841 -161.29385 174.05176 56.429676 -171.9729 3.77314E-7 -90.0 0.0 -7.4275007 0.655227 -10.069064 -5.336085E-8 -3.4146776E-6 4.0020634E-8
-0.023641594 -0.49973303 0.07393851 -1.128784 36.987724 1.2750652 -1.8626424 -23.50536 -0.049410112 -2.1730232 -35.23981 -0.8532726 2.1344343E-7 -6.670107E-9 5.3360857E-8 -2.134422E-7 6.67007E-9 -2.6680277E-7 4.7894665E-15 -1.7142171E-6 3.2016507E-7 4.7894665E-15 -1.7142171E-6 3.2016507E-7 4.7894665E-15 -1.7142171E-6 3.2016507E-7 -65.43282 -5.6373693E-7 1.6673889E-6 5.195991 32.74747 20.197104 -101.08802 83.34886 83.88296 77.63216 72.95971 -95.36139 -2.0852905E-5 -74.93151 -1.5981204E-5 -0.06649844 -48.356045 0.0025521677 -1.4941039E-6 0.0 0.0 -1.4941039E-6 0.0 0.0 -0.062131252 -74.9211 0.006494748 -2.5613208E-6 0.0 0.0 -2.5613208E-6 0.0 0.0 -0.062131252 -74.9211 0.006494748 -2.5613208E-6 0.0 0.0 -2.5613208E-6 0.0 0.0 -0.062131252 -74.9211 0.006494748 -2.5613208E-6 0.0 0.0 -2.5613208E-6 0.0 0.0 -0.062110074 -74.92109 0.006519584 8.5377354E-7 -1.7075472E-6 -3.4150944E-6 8.5377354E-7 -1.7075472E-6 -3.4150944E-6 3.4151144E-6 -7.257118E-6 -1.707557E-6 4.7894665E-15 -1.7142171E-6 3.2016507E-7 65.43282 3.526855E-6 -2.36098E-7 -31.449215 15.122368 -13.877217 53.30321 41.55355 -24.920511 -52.351418 80.42064 71.303764 1.3203743E-5 -74.93151 1.442166E-5 0.0027830785 -48.367664 0.0010663847 -0.0 0.0 3.4150944E-6 -0.0 0.0 3.4150944E-6 0.004626005 -74.932724 0.002732147 3.4150944E-6 1.7075471E-6 -3.4150944E-6 3.4150944E-6 1.7075471E-6 -3.4150944E-6 0.004626005 -74.932724 0.002732147 3.4150944E-6 1.7075471E-6 -3.4150944E-6 3.4150944E-6 1.7075471E-6 -3.4150944E-6 0.004626005 -74.932724 0.002732147 3.4150944E-6 1.7075471E-6 -3.4150944E-6 3.4150944E-6 1.7075471E-6 -3.4150944E-6 0.004633995 -74.93271 0.0027425722 3.4150949E-6 1.7075474E-6 -5.0888886E-14 3.4150949E-6 1.7075474E-6 -5.0888886E-14 1.7075179E-6 -1.1605787E-6 6.9367917E-7 -2.134422E-7 6.67007E-9 -2.6680277E-7 -90.0 -2.263909E-6 -4.678746E-6 78.85703 59.573 3.1286473 177.88934 -50.74969 166.24646 -177.63953 58.065662 178.31624 1.5092594E-7 -90.0 0.0 7.252773 0.46720663 7.3617363 90.0 2.2639094E-6 4.9806004E-6 -72.45627 57.30215 -5.9628153 -174.31789 -50.257713 -161.29507 174.04854 56.428112 -171.97351 178.73412 -89.999985 178.73412 -7.4272037 0.6551784 -10.068579 -0.0 3.4150949E-6 0.0
